<svg width="149" height="42" viewBox="0 0 149 42" fill="none" xmlns="http://www.w3.org/2000/svg">
<rect width="42" height="42" rx="8" fill="#3851DD"/>
<path d="M30.8006 6.16003L23.8006 12.46V27.86L30.8006 21.56V6.16003ZM13.3006 10.36C10.5706 10.36 7.63059 10.92 5.60059 12.46V32.984C5.60059 33.334 5.95059 33.684 6.30059 33.684C6.44059 33.684 6.51059 33.586 6.65059 33.586C8.54059 32.676 11.2706 32.06 13.3006 32.06C16.0306 32.06 18.9706 32.62 21.0006 34.16C22.8906 32.97 26.3206 32.06 28.7006 32.06C31.0106 32.06 33.3906 32.494 35.3506 33.544C35.4906 33.614 35.5606 33.586 35.7006 33.586C36.0506 33.586 36.4006 33.236 36.4006 32.886V12.46C35.5606 11.83 34.6506 11.41 33.6006 11.06V29.96C32.0606 29.47 30.3806 29.26 28.7006 29.26C26.3206 29.26 22.8906 30.17 21.0006 31.36V12.46C18.9706 10.92 16.0306 10.36 13.3006 10.36Z" fill="white"/>
<path d="M61.2784 9.4375H58.7898C58.7443 9.11553 58.6515 8.82955 58.5114 8.57955C58.3712 8.32576 58.1913 8.10985 57.9716 7.93182C57.7519 7.75379 57.4981 7.61742 57.2102 7.52273C56.9261 7.42803 56.6174 7.38068 56.2841 7.38068C55.6818 7.38068 55.1572 7.5303 54.7102 7.82955C54.2633 8.125 53.9167 8.55682 53.6705 9.125C53.4242 9.68939 53.3011 10.375 53.3011 11.1818C53.3011 12.0114 53.4242 12.7083 53.6705 13.2727C53.9205 13.8371 54.2689 14.2633 54.7159 14.5511C55.1629 14.839 55.6799 14.983 56.267 14.983C56.5966 14.983 56.9015 14.9394 57.1818 14.8523C57.4659 14.7652 57.7178 14.6383 57.9375 14.4716C58.1572 14.3011 58.339 14.0947 58.483 13.8523C58.6307 13.6098 58.733 13.3333 58.7898 13.0227L61.2784 13.0341C61.214 13.5682 61.053 14.0833 60.7955 14.5795C60.5417 15.072 60.1989 15.5133 59.767 15.9034C59.339 16.2898 58.8277 16.5966 58.233 16.8239C57.642 17.0473 56.9735 17.1591 56.2273 17.1591C55.1894 17.1591 54.2614 16.9242 53.4432 16.4545C52.6288 15.9848 51.9848 15.3049 51.5114 14.4148C51.0417 13.5246 50.8068 12.447 50.8068 11.1818C50.8068 9.91288 51.0455 8.83333 51.5227 7.94318C52 7.05303 52.6477 6.375 53.4659 5.90909C54.2841 5.43939 55.2045 5.20455 56.2273 5.20455C56.9015 5.20455 57.5265 5.29924 58.1023 5.48864C58.6818 5.67803 59.1951 5.95455 59.642 6.31818C60.089 6.67803 60.4527 7.11932 60.733 7.64205C61.017 8.16477 61.1989 8.76326 61.2784 9.4375ZM66.4603 17.1705C65.5778 17.1705 64.8145 16.983 64.1706 16.608C63.5304 16.2292 63.0361 15.7027 62.6876 15.0284C62.3391 14.3504 62.1649 13.5644 62.1649 12.6705C62.1649 11.7689 62.3391 10.9811 62.6876 10.3068C63.0361 9.62879 63.5304 9.10227 64.1706 8.72727C64.8145 8.34848 65.5778 8.15909 66.4603 8.15909C67.3429 8.15909 68.1043 8.34848 68.7444 8.72727C69.3884 9.10227 69.8846 9.62879 70.2331 10.3068C70.5816 10.9811 70.7558 11.7689 70.7558 12.6705C70.7558 13.5644 70.5816 14.3504 70.2331 15.0284C69.8846 15.7027 69.3884 16.2292 68.7444 16.608C68.1043 16.983 67.3429 17.1705 66.4603 17.1705ZM66.4717 15.2955C66.8732 15.2955 67.2084 15.1818 67.4774 14.9545C67.7463 14.7235 67.949 14.4091 68.0853 14.0114C68.2255 13.6136 68.2956 13.161 68.2956 12.6534C68.2956 12.1458 68.2255 11.6932 68.0853 11.2955C67.949 10.8977 67.7463 10.5833 67.4774 10.3523C67.2084 10.1212 66.8732 10.0057 66.4717 10.0057C66.0664 10.0057 65.7255 10.1212 65.449 10.3523C65.1763 10.5833 64.9698 10.8977 64.8297 11.2955C64.6933 11.6932 64.6251 12.1458 64.6251 12.6534C64.6251 13.161 64.6933 13.6136 64.8297 14.0114C64.9698 14.4091 65.1763 14.7235 65.449 14.9545C65.7255 15.1818 66.0664 15.2955 66.4717 15.2955ZM77.4463 13.2841V8.27273H79.8667V17H77.5428V15.4148H77.4519C77.255 15.9261 76.9273 16.3371 76.469 16.6477C76.0144 16.9583 75.4595 17.1136 74.8042 17.1136C74.2209 17.1136 73.7076 16.9811 73.2644 16.7159C72.8213 16.4508 72.4747 16.0739 72.2247 15.5852C71.9784 15.0966 71.8534 14.5114 71.8497 13.8295V8.27273H74.2701V13.3977C74.2739 13.9129 74.4122 14.3201 74.6849 14.6193C74.9576 14.9186 75.3231 15.0682 75.7815 15.0682C76.0731 15.0682 76.3459 15.0019 76.5997 14.8693C76.8534 14.733 77.058 14.5322 77.2133 14.267C77.3724 14.0019 77.45 13.6742 77.4463 13.2841ZM81.3228 17V8.27273H83.6694V9.79545H83.7603C83.9194 9.25379 84.1864 8.8447 84.5614 8.56818C84.9364 8.28788 85.3682 8.14773 85.8569 8.14773C85.9781 8.14773 86.1088 8.1553 86.2489 8.17045C86.3891 8.18561 86.5122 8.20644 86.6182 8.23295V10.3807C86.5046 10.3466 86.3474 10.3163 86.1466 10.2898C85.9459 10.2633 85.7622 10.25 85.5955 10.25C85.2395 10.25 84.9213 10.3277 84.641 10.483C84.3645 10.6345 84.1448 10.8466 83.9819 11.1193C83.8228 11.392 83.7432 11.7064 83.7432 12.0625V17H81.3228ZM94.651 10.7614L92.4351 10.8977C92.3972 10.7083 92.3158 10.5379 92.1908 10.3864C92.0658 10.2311 91.901 10.108 91.6965 10.017C91.4957 9.92235 91.2552 9.875 90.9749 9.875C90.5999 9.875 90.2836 9.95455 90.026 10.1136C89.7684 10.2689 89.6397 10.4773 89.6397 10.7386C89.6397 10.947 89.723 11.1231 89.8897 11.267C90.0563 11.411 90.3423 11.5265 90.7476 11.6136L92.3272 11.9318C93.1756 12.1061 93.8082 12.3864 94.2249 12.7727C94.6416 13.1591 94.8499 13.6667 94.8499 14.2955C94.8499 14.8674 94.6813 15.3693 94.3442 15.8011C94.0109 16.233 93.5525 16.5701 92.9692 16.8125C92.3897 17.0511 91.7211 17.1705 90.9635 17.1705C89.8082 17.1705 88.8878 16.9299 88.2022 16.4489C87.5203 15.964 87.1207 15.3049 87.0033 14.4716L89.384 14.3466C89.4559 14.6989 89.6302 14.9678 89.9067 15.1534C90.1832 15.3352 90.5374 15.4261 90.9692 15.4261C91.3934 15.4261 91.7344 15.3447 91.9919 15.1818C92.2533 15.0152 92.3859 14.8011 92.3897 14.5398C92.3859 14.3201 92.2931 14.1402 92.1113 14C91.9294 13.8561 91.6491 13.7462 91.2703 13.6705L89.759 13.3693C88.9067 13.1989 88.2722 12.9034 87.8556 12.483C87.4427 12.0625 87.2363 11.5265 87.2363 10.875C87.2363 10.3144 87.3878 9.83144 87.6908 9.42614C87.9976 9.02083 88.4275 8.70833 88.9806 8.48864C89.5374 8.26894 90.1889 8.15909 90.9351 8.15909C92.0374 8.15909 92.9048 8.39205 93.5374 8.85795C94.1738 9.32386 94.545 9.95833 94.651 10.7614ZM99.8713 17.1705C98.9736 17.1705 98.2009 16.9886 97.5531 16.625C96.9092 16.2576 96.413 15.7386 96.0645 15.0682C95.716 14.3939 95.5418 13.5966 95.5418 12.6761C95.5418 11.7784 95.716 10.9905 96.0645 10.3125C96.413 9.63447 96.9035 9.10606 97.5361 8.72727C98.1724 8.34848 98.9187 8.15909 99.7747 8.15909C100.35 8.15909 100.886 8.25189 101.383 8.4375C101.883 8.61932 102.318 8.89394 102.689 9.26136C103.064 9.62879 103.356 10.0909 103.564 10.6477C103.773 11.2008 103.877 11.8485 103.877 12.5909V13.2557H96.5077V11.7557H101.599C101.599 11.4072 101.523 11.0985 101.371 10.8295C101.22 10.5606 101.01 10.3504 100.741 10.1989C100.475 10.0436 100.167 9.96591 99.8145 9.96591C99.4471 9.96591 99.1213 10.0511 98.8372 10.2216C98.5569 10.3883 98.3372 10.6136 98.1781 10.8977C98.019 11.178 97.9376 11.4905 97.9338 11.8352V13.2614C97.9338 13.6932 98.0134 14.0663 98.1724 14.3807C98.3353 14.6951 98.5645 14.9375 98.8599 15.108C99.1554 15.2784 99.5058 15.3636 99.9111 15.3636C100.18 15.3636 100.426 15.3258 100.65 15.25C100.873 15.1742 101.064 15.0606 101.224 14.9091C101.383 14.7576 101.504 14.572 101.587 14.3523L103.826 14.5C103.712 15.0379 103.479 15.5076 103.127 15.9091C102.779 16.3068 102.328 16.6174 101.775 16.8409C101.225 17.0606 100.591 17.1705 99.8713 17.1705ZM51.0114 24.3636H54.0455L57.25 32.1818H57.3864L60.5909 24.3636H63.625V36H61.2386V28.4261H61.142L58.1307 35.9432H56.5057L53.4943 28.3977H53.3977V36H51.0114V24.3636ZM67.6152 36.1648C67.0584 36.1648 66.5621 36.0682 66.1265 35.875C65.6909 35.678 65.3462 35.3883 65.0924 35.0057C64.8424 34.6193 64.7174 34.1383 64.7174 33.5625C64.7174 33.0777 64.8065 32.6705 64.9845 32.3409C65.1625 32.0114 65.4049 31.7462 65.7118 31.5455C66.0186 31.3447 66.3671 31.1932 66.7572 31.0909C67.1512 30.9886 67.564 30.9167 67.9959 30.875C68.5034 30.822 68.9125 30.7727 69.2231 30.7273C69.5337 30.678 69.7591 30.6061 69.8993 30.5114C70.0394 30.4167 70.1095 30.2765 70.1095 30.0909V30.0568C70.1095 29.697 69.9959 29.4186 69.7686 29.2216C69.5451 29.0246 69.2269 28.9261 68.814 28.9261C68.3784 28.9261 68.0318 29.0227 67.7743 29.2159C67.5167 29.4053 67.3462 29.6439 67.2629 29.9318L65.0243 29.75C65.1379 29.2197 65.3614 28.7614 65.6947 28.375C66.028 27.9848 66.458 27.6856 66.9845 27.4773C67.5148 27.2652 68.1284 27.1591 68.8254 27.1591C69.3102 27.1591 69.7743 27.2159 70.2174 27.3295C70.6644 27.4432 71.0602 27.6193 71.4049 27.858C71.7534 28.0966 72.028 28.4034 72.2288 28.7784C72.4296 29.1496 72.5299 29.5947 72.5299 30.1136V36H70.2345V34.7898H70.1663C70.0262 35.0625 69.8387 35.303 69.6038 35.5114C69.369 35.7159 69.0868 35.8769 68.7572 35.9943C68.4277 36.108 68.047 36.1648 67.6152 36.1648ZM68.3084 34.4943C68.6644 34.4943 68.9788 34.4242 69.2515 34.2841C69.5243 34.1402 69.7383 33.947 69.8936 33.7045C70.0489 33.4621 70.1265 33.1875 70.1265 32.8807V31.9545C70.0508 32.0038 69.9466 32.0492 69.814 32.0909C69.6852 32.1288 69.5394 32.1648 69.3765 32.1989C69.2137 32.2292 69.0508 32.2576 68.8879 32.2841C68.725 32.3068 68.5773 32.3277 68.4447 32.3466C68.1606 32.3883 67.9125 32.4545 67.7004 32.5455C67.4883 32.6364 67.3235 32.7595 67.2061 32.9148C67.0887 33.0663 67.0299 33.2557 67.0299 33.483C67.0299 33.8125 67.1493 34.0644 67.3879 34.2386C67.6303 34.4091 67.9371 34.4943 68.3084 34.4943ZM76.3482 30.9545V36H73.9278V27.2727H76.2346V28.8125H76.3369C76.5301 28.3049 76.8539 27.9034 77.3085 27.608C77.763 27.3087 78.3141 27.1591 78.9619 27.1591C79.5679 27.1591 80.0963 27.2917 80.5471 27.5568C80.9979 27.822 81.3482 28.2008 81.5982 28.6932C81.8482 29.1818 81.9732 29.7652 81.9732 30.4432V36H79.5528V30.875C79.5566 30.3409 79.4202 29.9242 79.1437 29.625C78.8672 29.322 78.4865 29.1705 78.0016 29.1705C77.6759 29.1705 77.388 29.2405 77.138 29.3807C76.8918 29.5208 76.6986 29.7254 76.5585 29.9943C76.4221 30.2595 76.352 30.5795 76.3482 30.9545ZM85.8895 36.1648C85.3327 36.1648 84.8365 36.0682 84.4009 35.875C83.9653 35.678 83.6206 35.3883 83.3668 35.0057C83.1168 34.6193 82.9918 34.1383 82.9918 33.5625C82.9918 33.0777 83.0808 32.6705 83.2589 32.3409C83.4369 32.0114 83.6793 31.7462 83.9861 31.5455C84.293 31.3447 84.6414 31.1932 85.0316 31.0909C85.4255 30.9886 85.8384 30.9167 86.2702 30.875C86.7778 30.822 87.1869 30.7727 87.4975 30.7273C87.8081 30.678 88.0335 30.6061 88.1736 30.5114C88.3138 30.4167 88.3839 30.2765 88.3839 30.0909V30.0568C88.3839 29.697 88.2702 29.4186 88.043 29.2216C87.8195 29.0246 87.5013 28.9261 87.0884 28.9261C86.6528 28.9261 86.3062 29.0227 86.0486 29.2159C85.7911 29.4053 85.6206 29.6439 85.5373 29.9318L83.2986 29.75C83.4123 29.2197 83.6358 28.7614 83.9691 28.375C84.3024 27.9848 84.7323 27.6856 85.2589 27.4773C85.7892 27.2652 86.4028 27.1591 87.0998 27.1591C87.5846 27.1591 88.0486 27.2159 88.4918 27.3295C88.9388 27.4432 89.3346 27.6193 89.6793 27.858C90.0278 28.0966 90.3024 28.4034 90.5032 28.7784C90.7039 29.1496 90.8043 29.5947 90.8043 30.1136V36H88.5089V34.7898H88.4407C88.3005 35.0625 88.113 35.303 87.8782 35.5114C87.6433 35.7159 87.3611 35.8769 87.0316 35.9943C86.702 36.108 86.3214 36.1648 85.8895 36.1648ZM86.5827 34.4943C86.9388 34.4943 87.2532 34.4242 87.5259 34.2841C87.7986 34.1402 88.0127 33.947 88.168 33.7045C88.3233 33.4621 88.4009 33.1875 88.4009 32.8807V31.9545C88.3252 32.0038 88.221 32.0492 88.0884 32.0909C87.9596 32.1288 87.8138 32.1648 87.6509 32.1989C87.488 32.2292 87.3252 32.2576 87.1623 32.2841C86.9994 32.3068 86.8517 32.3277 86.7191 32.3466C86.435 32.3883 86.1869 32.4545 85.9748 32.5455C85.7627 32.6364 85.5979 32.7595 85.4805 32.9148C85.363 33.0663 85.3043 33.2557 85.3043 33.483C85.3043 33.8125 85.4236 34.0644 85.6623 34.2386C85.9047 34.4091 86.2115 34.4943 86.5827 34.4943ZM96.134 39.4545C95.3499 39.4545 94.6775 39.3466 94.1169 39.1307C93.5601 38.9186 93.1169 38.6288 92.7874 38.2614C92.4578 37.8939 92.2438 37.4811 92.1453 37.0227L94.384 36.7216C94.4522 36.8958 94.5601 37.0587 94.7078 37.2102C94.8556 37.3617 95.0506 37.483 95.2931 37.5739C95.5393 37.6686 95.8385 37.7159 96.1908 37.7159C96.7173 37.7159 97.151 37.5871 97.4919 37.3295C97.8366 37.0758 98.009 36.6496 98.009 36.0511V34.4545H97.9067C97.8006 34.697 97.6416 34.9261 97.4294 35.142C97.2173 35.358 96.9446 35.5341 96.6113 35.6705C96.2779 35.8068 95.8802 35.875 95.4181 35.875C94.7628 35.875 94.1662 35.7235 93.6283 35.4205C93.0942 35.1136 92.6681 34.6458 92.3499 34.017C92.0355 33.3845 91.8783 32.5852 91.8783 31.6193C91.8783 30.6307 92.0393 29.8049 92.3613 29.142C92.6832 28.4792 93.1113 27.983 93.6453 27.6534C94.1832 27.3239 94.7722 27.1591 95.4124 27.1591C95.901 27.1591 96.3101 27.2424 96.6397 27.4091C96.9692 27.572 97.2344 27.7765 97.4351 28.0227C97.6397 28.2652 97.7969 28.5038 97.9067 28.7386H97.9976V27.2727H100.401V36.0852C100.401 36.8277 100.219 37.4489 99.8556 37.9489C99.4919 38.4489 98.9881 38.8239 98.3442 39.0739C97.7041 39.3277 96.9673 39.4545 96.134 39.4545ZM96.1851 34.0568C96.5753 34.0568 96.9048 33.9602 97.1738 33.767C97.4465 33.5701 97.6548 33.2898 97.7988 32.9261C97.9465 32.5587 98.0203 32.1193 98.0203 31.608C98.0203 31.0966 97.9484 30.6534 97.8044 30.2784C97.6605 29.8996 97.4522 29.6061 97.1794 29.3977C96.9067 29.1894 96.5753 29.0852 96.1851 29.0852C95.7874 29.0852 95.4522 29.1932 95.1794 29.4091C94.9067 29.6212 94.7003 29.9167 94.5601 30.2955C94.42 30.6742 94.3499 31.1117 94.3499 31.608C94.3499 32.1117 94.42 32.5473 94.5601 32.9148C94.7041 33.2784 94.9105 33.5606 95.1794 33.7614C95.4522 33.9583 95.7874 34.0568 96.1851 34.0568ZM105.824 36.1705C104.927 36.1705 104.154 35.9886 103.506 35.625C102.862 35.2576 102.366 34.7386 102.018 34.0682C101.669 33.3939 101.495 32.5966 101.495 31.6761C101.495 30.7784 101.669 29.9905 102.018 29.3125C102.366 28.6345 102.857 28.1061 103.489 27.7273C104.126 27.3485 104.872 27.1591 105.728 27.1591C106.304 27.1591 106.84 27.2519 107.336 27.4375C107.836 27.6193 108.271 27.8939 108.643 28.2614C109.018 28.6288 109.309 29.0909 109.518 29.6477C109.726 30.2008 109.83 30.8485 109.83 31.5909V32.2557H102.461V30.7557H107.552C107.552 30.4072 107.476 30.0985 107.324 29.8295C107.173 29.5606 106.963 29.3504 106.694 29.1989C106.429 29.0436 106.12 28.9659 105.768 28.9659C105.4 28.9659 105.074 29.0511 104.79 29.2216C104.51 29.3883 104.29 29.6136 104.131 29.8977C103.972 30.178 103.891 30.4905 103.887 30.8352V32.2614C103.887 32.6932 103.966 33.0663 104.126 33.3807C104.288 33.6951 104.518 33.9375 104.813 34.108C105.109 34.2784 105.459 34.3636 105.864 34.3636C106.133 34.3636 106.379 34.3258 106.603 34.25C106.826 34.1742 107.018 34.0606 107.177 33.9091C107.336 33.7576 107.457 33.572 107.54 33.3523L109.779 33.5C109.665 34.0379 109.432 34.5076 109.08 34.9091C108.732 35.3068 108.281 35.6174 107.728 35.8409C107.179 36.0606 106.544 36.1705 105.824 36.1705ZM110.93 36V27.2727H113.236V28.8125H113.339C113.521 28.3011 113.824 27.8977 114.248 27.6023C114.672 27.3068 115.18 27.1591 115.771 27.1591C116.369 27.1591 116.879 27.3087 117.299 27.608C117.719 27.9034 118 28.3049 118.14 28.8125H118.231C118.409 28.3125 118.731 27.9129 119.197 27.6136C119.666 27.3106 120.221 27.1591 120.861 27.1591C121.676 27.1591 122.337 27.4186 122.844 27.9375C123.356 28.4527 123.611 29.1837 123.611 30.1307V36H121.197V30.608C121.197 30.1231 121.068 29.7595 120.81 29.517C120.553 29.2746 120.231 29.1534 119.844 29.1534C119.405 29.1534 119.062 29.2936 118.816 29.5739C118.57 29.8504 118.447 30.2159 118.447 30.6705V36H116.1V30.5568C116.1 30.1288 115.977 29.7879 115.731 29.5341C115.488 29.2803 115.168 29.1534 114.771 29.1534C114.502 29.1534 114.259 29.2216 114.043 29.358C113.831 29.4905 113.663 29.678 113.538 29.9205C113.413 30.1591 113.35 30.4394 113.35 30.7614V36H110.93ZM129.021 36.1705C128.123 36.1705 127.35 35.9886 126.702 35.625C126.059 35.2576 125.562 34.7386 125.214 34.0682C124.865 33.3939 124.691 32.5966 124.691 31.6761C124.691 30.7784 124.865 29.9905 125.214 29.3125C125.562 28.6345 126.053 28.1061 126.685 27.7273C127.322 27.3485 128.068 27.1591 128.924 27.1591C129.5 27.1591 130.036 27.2519 130.532 27.4375C131.032 27.6193 131.468 27.8939 131.839 28.2614C132.214 28.6288 132.506 29.0909 132.714 29.6477C132.922 30.2008 133.026 30.8485 133.026 31.5909V32.2557H125.657V30.7557H130.748C130.748 30.4072 130.672 30.0985 130.521 29.8295C130.369 29.5606 130.159 29.3504 129.89 29.1989C129.625 29.0436 129.316 28.9659 128.964 28.9659C128.596 28.9659 128.271 29.0511 127.987 29.2216C127.706 29.3883 127.487 29.6136 127.327 29.8977C127.168 30.178 127.087 30.4905 127.083 30.8352V32.2614C127.083 32.6932 127.163 33.0663 127.322 33.3807C127.485 33.6951 127.714 33.9375 128.009 34.108C128.305 34.2784 128.655 34.3636 129.06 34.3636C129.329 34.3636 129.576 34.3258 129.799 34.25C130.023 34.1742 130.214 34.0606 130.373 33.9091C130.532 33.7576 130.653 33.572 130.737 33.3523L132.975 33.5C132.862 34.0379 132.629 34.5076 132.276 34.9091C131.928 35.3068 131.477 35.6174 130.924 35.8409C130.375 36.0606 129.74 36.1705 129.021 36.1705ZM136.546 30.9545V36H134.126V27.2727H136.433V28.8125H136.535C136.728 28.3049 137.052 27.9034 137.507 27.608C137.961 27.3087 138.512 27.1591 139.16 27.1591C139.766 27.1591 140.294 27.2917 140.745 27.5568C141.196 27.822 141.546 28.2008 141.796 28.6932C142.046 29.1818 142.171 29.7652 142.171 30.4432V36H139.751V30.875C139.755 30.3409 139.618 29.9242 139.342 29.625C139.065 29.322 138.685 29.1705 138.2 29.1705C137.874 29.1705 137.586 29.2405 137.336 29.3807C137.09 29.5208 136.897 29.7254 136.757 29.9943C136.62 30.2595 136.55 30.5795 136.546 30.9545ZM148.241 27.2727V29.0909H142.985V27.2727H148.241ZM144.179 25.1818H146.599V33.3182C146.599 33.5417 146.633 33.7159 146.701 33.8409C146.769 33.9621 146.864 34.0473 146.985 34.0966C147.11 34.1458 147.254 34.1705 147.417 34.1705C147.531 34.1705 147.644 34.161 147.758 34.142C147.872 34.1193 147.959 34.1023 148.019 34.0909L148.4 35.892C148.279 35.9299 148.109 35.9735 147.889 36.0227C147.669 36.0758 147.402 36.108 147.088 36.1193C146.504 36.142 145.993 36.0644 145.554 35.8864C145.118 35.7083 144.779 35.4318 144.537 35.0568C144.294 34.6818 144.175 34.2083 144.179 33.6364V25.1818Z" fill="#0E2087"/>
</svg>
