<svg width="100" height="100" viewBox="0 0 100 100" fill="none" xmlns="http://www.w3.org/2000/svg">
<rect width="100" height="100" rx="8" fill="#3851DD"/>
<path d="M73.333 14.6666L56.6663 29.6666V66.3333L73.333 51.3333V14.6666ZM31.6663 24.6666C25.1663 24.6666 18.1663 26 13.333 29.6666V78.5333C13.333 79.3666 14.1663 80.2 14.9997 80.2C15.333 80.2 15.4997 79.9666 15.833 79.9666C20.333 77.8 26.833 76.3333 31.6663 76.3333C38.1663 76.3333 45.1663 77.6666 49.9997 81.3333C54.4997 78.5 62.6663 76.3333 68.333 76.3333C73.833 76.3333 79.4997 77.3666 84.1663 79.8666C84.4997 80.0333 84.6663 79.9666 84.9997 79.9666C85.833 79.9666 86.6663 79.1333 86.6663 78.3V29.6666C84.6663 28.1666 82.4997 27.1666 79.9997 26.3333V71.3333C76.333 70.1666 72.333 69.6666 68.333 69.6666C62.6663 69.6666 54.4997 71.8333 49.9997 74.6666V29.6666C45.1663 26 38.1663 24.6666 31.6663 24.6666Z" fill="white"/>
</svg>
